#N canvas 750 108 803 767 10;
#X obj 80 634 sendOSC;
#X obj 1 642 loadbang;
#X floatatom 103 158 5 0 0 0 - - -;
#X floatatom 201 226 20 0 0 0 - - -;
#X msg -87 443 \; pd dsp 1;
#X msg -5 713 disconnect;
#X text 20 154 vinyl speed;
#X text 208 205 vinyl position;
#X obj 145 126 bng 15 250 50 0 empty empty empty 17 7 0 10 -262144
-1 -1;
#X msg 1 667 connect localhost 12000;
#X obj 38 130 bng 15 250 50 0 empty empty empty 17 7 0 10 -262144 -1
-1;
#X obj 291 185 bng 15 250 50 0 empty empty empty 17 7 0 10 -262144
-1 -1;
#X floatatom 201 309 5 0 0 0 - - -;
#X obj 201 186 * 3600;
#X floatatom 202 147 5 0 0 0 - - -;
#X obj 201 257 / 3600;
#X obj 201 283 + 1e-05;
#X msg 113 132 0;
#X obj -85 414 loadbang;
#X obj 114 66 *~ -1;
#X obj 196 65 *~ -1;
#X obj 167 34 adc~ 1 2;
#X obj 96 97 xwax~ traktor_b;
#X msg 97 577 send /xwax \$1;
#X obj 96 536 float;
#X floatatom 54 426 4 0 0 0 - - -;
#X obj 3 427 bng 15 250 50 0 empty empty empty 17 7 0 10 -262144 -1
-1;
#X text 109 306;
#X floatatom 39 559 5 0 0 0 - - -;
#X obj 3 453 metro 20;
#X connect 1 0 9 0;
#X connect 2 0 24 1;
#X connect 3 0 15 0;
#X connect 5 0 0 0;
#X connect 8 0 17 0;
#X connect 9 0 0 0;
#X connect 10 0 2 0;
#X connect 13 0 3 0;
#X connect 14 0 13 0;
#X connect 14 0 11 0;
#X connect 15 0 16 0;
#X connect 16 0 12 0;
#X connect 17 0 2 0;
#X connect 18 0 4 0;
#X connect 18 0 26 0;
#X connect 19 0 22 0;
#X connect 20 0 22 1;
#X connect 21 0 19 0;
#X connect 21 1 20 0;
#X connect 22 0 2 0;
#X connect 22 1 3 0;
#X connect 23 0 0 0;
#X connect 24 0 23 0;
#X connect 24 0 28 0;
#X connect 25 0 29 1;
#X connect 26 0 29 0;
#X connect 29 0 24 0;
